name ./resultDataOpenSim/trcMotMarkerGrf/sub06/grf-14-08.mot
datacolumns 19
datarows 20
range 1.05200000 1.12800000
endheader

                time	     ground_force_vx	     ground_force_vy	     ground_force_vz	     ground_force_px	     ground_force_py	     ground_force_pz	   l_ground_force_vx	   l_ground_force_vy	   l_ground_force_vz	   l_ground_force_px	   l_ground_force_py	   l_ground_force_pz	     ground_torque_x	     ground_torque_y	     ground_torque_z	   l_ground_torque_x	   l_ground_torque_y	   l_ground_torque_z	
          1.05200000	          0.00000000	          0.00000000	          0.00000000	          0.00000000	          0.00000000	          0.00000000	        115.75411538	        635.24286012	         -1.30534928	          0.05010501	         -0.07500200	         -0.01417322	          0.00000000	          0.00000000	          0.00000000	          0.00000000	         -2.22542901	          0.00000000	
          1.05600000	          0.00000000	          0.00000000	          0.00000000	          0.00000000	          0.00000000	          0.00000000	        121.40569841	        648.68470034	         -2.16986637	          0.05082590	         -0.07500200	         -0.01356681	          0.00000000	          0.00000000	          0.00000000	          0.00000000	         -2.34634072	          0.00000000	
          1.06000000	          0.00000000	          0.00000000	          0.00000000	          0.00000000	          0.00000000	          0.00000000	        127.30665905	        660.64951841	         -2.98174089	          0.05157527	         -0.07500200	         -0.01295776	          0.00000000	          0.00000000	          0.00000000	          0.00000000	         -2.45761619	          0.00000000	
          1.06400000	          0.00000000	          0.00000000	          0.00000000	          0.00000000	          0.00000000	          0.00000000	        133.41413926	        670.84464768	         -3.70565198	          0.05234263	         -0.07500200	         -0.01235996	          0.00000000	          0.00000000	          0.00000000	          0.00000000	         -2.55554440	          0.00000000	
          1.06800000	          0.00000000	          0.00000000	          0.00000000	          0.00000000	          0.00000000	          0.00000000	        139.66721592	        679.06920882	         -4.34316872	          0.05312501	         -0.07500200	         -0.01177571	          0.00000000	          0.00000000	          0.00000000	          0.00000000	         -2.63675576	          0.00000000	
          1.07200000	          0.00000000	          0.00000000	          0.00000000	          0.00000000	          0.00000000	          0.00000000	        145.98996311	        685.19825077	         -4.92925751	          0.05391151	         -0.07500200	         -0.01120681	          0.00000000	          0.00000000	          0.00000000	          0.00000000	         -2.69849715	          0.00000000	
          1.07600000	          0.00000000	          0.00000000	          0.00000000	          0.00000000	          0.00000000	          0.00000000	        152.29080966	        689.14254269	         -5.50563848	          0.05467569	         -0.07500200	         -0.01066329	          0.00000000	          0.00000000	          0.00000000	          0.00000000	         -2.73867794	          0.00000000	
          1.08000000	          0.00000000	          0.00000000	          0.00000000	          0.00000000	          0.00000000	          0.00000000	        158.46819587	        690.82745395	         -6.08814783	          0.05538218	         -0.07500180	         -0.01016591	          0.00000000	          0.00000000	          0.00000000	          0.00000000	         -2.75593344	          0.00000000	
          1.08400000	          0.00000000	          0.00000000	          0.00000000	          0.00000000	          0.00000000	          0.00000000	        164.41513840	        690.19219417	         -6.65543201	          0.05600085	         -0.07500100	         -0.00972943	          0.00000000	          0.00000000	          0.00000000	          0.00000000	         -2.74989756	          0.00000000	
          1.08800000	          0.00000000	          0.00000000	          0.00000000	          0.00000000	          0.00000000	          0.00000000	        170.01889718	        687.16442040	         -7.17150080	          0.05652666	         -0.07500100	         -0.00934824	          0.00000000	          0.00000000	          0.00000000	          0.00000000	         -2.72165177	          0.00000000	
          1.09200000	          0.00000000	          0.00000000	          0.00000000	          0.00000000	          0.00000000	          0.00000000	        175.16268966	        681.60159090	         -7.62338236	          0.05697952	         -0.07500092	         -0.00901064	          0.00000000	          0.00000000	          0.00000000	          0.00000000	         -2.67413595	          0.00000000	
          1.09600000	          0.00000000	          0.00000000	          0.00000000	          0.00000000	          0.00000000	          0.00000000	        179.73176669	        673.25779632	         -8.03943858	          0.05738960	         -0.07500000	         -0.00871280	          0.00000000	          0.00000000	          0.00000000	          0.00000000	         -2.61227238	          0.00000000	
          1.10000000	          0.00000000	          0.00000000	          0.00000000	          0.00000000	          0.00000000	          0.00000000	        183.60931029	        661.83293577	         -8.47204067	          0.05779739	         -0.07500000	         -0.00844978	          0.00000000	          0.00000000	          0.00000000	          0.00000000	         -2.54258756	          0.00000000	
          1.10400000	          0.00000000	          0.00000000	          0.00000000	          0.00000000	          0.00000000	          0.00000000	        186.65859704	        647.06551180	         -8.96544496	          0.05823913	         -0.07499968	         -0.00821003	          0.00000000	          0.00000000	          0.00000000	          0.00000000	         -2.47222323	          0.00000000	
          1.10800000	          0.00000000	          0.00000000	          0.00000000	          0.00000000	          0.00000000	          0.00000000	        188.71431390	        628.74995520	         -9.53643754	          0.05872313	         -0.07499905	         -0.00799083	          0.00000000	          0.00000000	          0.00000000	          0.00000000	         -2.40751083	          0.00000000	
          1.11200000	          0.00000000	          0.00000000	          0.00000000	          0.00000000	          0.00000000	          0.00000000	        189.58151647	        606.66501079	        -10.16866239	          0.05927779	         -0.07499812	         -0.00778922	          0.00000000	          0.00000000	          0.00000000	          0.00000000	         -2.35258918	          0.00000000	
          1.11600000	          0.00000000	          0.00000000	          0.00000000	          0.00000000	          0.00000000	          0.00000000	        189.02244881	        580.54673145	        -10.81876724	          0.05993681	         -0.07499800	         -0.00759010	          0.00000000	          0.00000000	          0.00000000	          0.00000000	         -2.30853755	          0.00000000	
          1.12000000	          0.00000000	          0.00000000	          0.00000000	          0.00000000	          0.00000000	          0.00000000	        186.74508585	        550.16563410	        -11.44237462	          0.06069503	         -0.07499720	         -0.00738387	          0.00000000	          0.00000000	          0.00000000	          0.00000000	         -2.27318021	          0.00000000	
          1.12400000	          0.00000000	          0.00000000	          0.00000000	          0.00000000	          0.00000000	          0.00000000	        182.42006667	        515.45253455	        -12.02134867	          0.06156854	         -0.07499700	         -0.00715718	          0.00000000	          0.00000000	          0.00000000	          0.00000000	         -2.24142555	          0.00000000	
          1.12800000	        -14.58839501	        187.64939644	          6.19315016	          0.74843755	          0.00000000	          0.03762752	        175.73211556	        476.62899807	        -12.55986914	          0.06262522	         -0.07499628	         -0.00687047	          0.00000000	          0.60860269	          0.00000000	          0.00000000	         -2.20593318	          0.00000000	
